<?xml version="1.0" standalone="no"?><!DOCTYPE svg PUBLIC "-//W3C//DTD SVG 1.1//EN" "http://www.w3.org/Graphics/SVG/1.1/DTD/svg11.dtd"><svg t="1671202926304" class="icon" viewBox="0 0 1024 1024" version="1.1" xmlns="http://www.w3.org/2000/svg" p-id="858" xmlns:xlink="http://www.w3.org/1999/xlink" width="200" height="200"><path d="M480 501.333333c0 8.533333 4.266667 17.066667 10.666667 23.466667L832 834.133333c12.8 12.8 34.133333 10.666667 44.8-2.133333 12.8-12.8 10.666667-34.133333-2.133333-44.8l-315.733334-285.866667L874.666667 215.466667c12.8-12.8 14.933333-32 2.133333-44.8-6.4-6.4-14.933333-10.666667-23.466667-10.666667-8.533333 0-14.933333 2.133333-21.333333 8.533333l-341.333333 309.333334c-6.4 6.4-10.666667 14.933333-10.666667 23.466666z" fill="#666666" p-id="859"></path><path d="M160 524.8l341.333333 309.333333c12.8 12.8 34.133333 10.666667 44.8-2.133333 12.8-12.8 10.666667-34.133333-2.133333-44.8l-315.733333-285.866667 315.733333-285.866666c12.8-12.8 14.933333-32 2.133333-44.8-6.4-6.4-14.933333-10.666667-23.466666-10.666667-8.533333 0-14.933333 2.133333-21.333334 8.533333l-341.333333 309.333334c-6.4 6.4-10.666667 14.933333-10.666667 23.466666 0 8.533333 4.266667 17.066667 10.666667 23.466667z" fill="#666666" p-id="860"></path></svg>